<?xml version="1.0" encoding="UTF-8" standalone="no"?>
<svg
   xmlns:dc="http://purl.org/dc/elements/1.1/"
   xmlns:cc="http://creativecommons.org/ns#"
   xmlns:rdf="http://www.w3.org/1999/02/22-rdf-syntax-ns#"
   xmlns:svg="http://www.w3.org/2000/svg"
   xmlns="http://www.w3.org/2000/svg"
   xmlns:sodipodi="http://sodipodi.sourceforge.net/DTD/sodipodi-0.dtd"
   xmlns:inkscape="http://www.inkscape.org/namespaces/inkscape"
   version="1.1"
   id="svg2"
   xml:space="preserve"
   width="1032.8916"
   height="331.29431"
   viewBox="0 0 1032.8916 331.29431"
   sodipodi:docname="logo-hackasom-2021.svg"
   inkscape:version="1.0.1 (3bc2e813f5, 2020-09-07)"><metadata
     id="metadata8"><rdf:RDF><cc:Work
         rdf:about=""><dc:format>image/svg+xml</dc:format><dc:type
           rdf:resource="http://purl.org/dc/dcmitype/StillImage" /><dc:title></dc:title></cc:Work></rdf:RDF></metadata><defs
     id="defs6"><clipPath
       clipPathUnits="userSpaceOnUse"
       id="clipPath20"><path
         d="M 0,595.276 H 841.89 V 0 H 0 Z"
         id="path18" /></clipPath><clipPath
       clipPathUnits="userSpaceOnUse"
       id="clipPath32"><path
         d="M 0,595.276 H 841.89 V 0 H 0 Z"
         id="path30" /></clipPath><clipPath
       clipPathUnits="userSpaceOnUse"
       id="clipPath46"><path
         d="m 178.733,366.569 c -2.193,-0.623 -4.256,-1.353 -6.189,-2.189 v 0 c -4.194,-1.813 -5.982,-6.922 -3.903,-11.079 v 0 c 1.881,-3.761 6.249,-5.326 10.043,-3.686 v 0 c 0.878,0.379 1.794,0.728 2.749,1.048 v 0 c 3.553,1.187 7.174,1.781 10.859,1.781 v 0 c 5.312,0 9.296,-1.21 11.953,-3.63 v 0 c 2.654,-2.422 3.984,-5.874 3.984,-10.363 v 0 h -15.937 c -10.111,0 -17.588,-1.893 -22.426,-5.677 v 0 c -4.843,-3.785 -7.262,-8.977 -7.262,-15.576 v 0 c 0,-4.138 1.029,-7.835 3.084,-11.09 v 0 c 2.057,-3.257 5.033,-5.808 8.933,-7.656 v 0 c 3.898,-1.849 8.503,-2.773 13.816,-2.773 v 0 c 10.281,0 17.307,3.3 21.078,9.902 v 0 c 0,-4.886 3.854,-8.846 8.61,-8.846 v 0 h 1.542 c 4.756,0 8.611,3.96 8.611,8.846 v 0 31.682 c 0,10.562 -2.871,18.459 -8.611,23.695 v 0 c -5.741,5.236 -13.967,7.855 -24.676,7.855 v 0 c -5.57,0 -10.988,-0.748 -16.258,-2.244 m 6.426,-54.719 c -2.014,1.539 -3.02,3.632 -3.02,6.271 v 0 c 0,5.545 4.113,8.317 12.338,8.317 v 0 h 13.752 v -7.26 c -1.115,-3.169 -3.001,-5.569 -5.655,-7.196 v 0 c -2.656,-1.629 -5.699,-2.441 -9.124,-2.441 v 0 c -3.515,0 -6.279,0.769 -8.291,2.309"
         id="path44" /></clipPath><linearGradient
       x1="0"
       y1="0"
       x2="1"
       y2="0"
       gradientUnits="userSpaceOnUse"
       gradientTransform="matrix(0,-73.134209,-73.134209,0,195.44099,368.81317)"
       spreadMethod="pad"
       id="linearGradient64"><stop
         style="stop-opacity:1;stop-color:#ffffff"
         offset="0"
         id="stop56" /><stop
         style="stop-opacity:1;stop-color:#ffffff"
         offset="0.10819503"
         id="stop58" /><stop
         style="stop-opacity:1;stop-color:#ffffff"
         offset="0.348255"
         id="stop60" /><stop
         style="stop-opacity:0;stop-color:#ffffff"
         offset="1"
         id="stop62" /></linearGradient><mask
       maskUnits="userSpaceOnUse"
       x="0"
       y="0"
       width="1"
       height="1"
       id="mask66"><g
         id="g76"><g
           id="g74"><g
             id="g72"><g
               id="g70"><path
                 d="M -32768,32767 H 32767 V -32768 H -32768 Z"
                 style="fill:url(#linearGradient64);stroke:none"
                 id="path68" /></g></g></g></g></mask><linearGradient
       x1="0"
       y1="0"
       x2="1"
       y2="0"
       gradientUnits="userSpaceOnUse"
       gradientTransform="matrix(0,-73.134209,-73.134209,0,195.44099,368.81317)"
       spreadMethod="pad"
       id="linearGradient90"><stop
         style="stop-opacity:1;stop-color:#afdb1f"
         offset="0"
         id="stop82" /><stop
         style="stop-opacity:1;stop-color:#afdb1f"
         offset="0.10819503"
         id="stop84" /><stop
         style="stop-opacity:1;stop-color:#afdb1f"
         offset="0.348255"
         id="stop86" /><stop
         style="stop-opacity:1;stop-color:#afdb1f"
         offset="1"
         id="stop88" /></linearGradient><clipPath
       clipPathUnits="userSpaceOnUse"
       id="clipPath100"><path
         d="M 0,595.276 H 841.89 V 0 H 0 Z"
         id="path98" /></clipPath><clipPath
       clipPathUnits="userSpaceOnUse"
       id="clipPath112"><path
         d="m 397.34,367.267 c -2.192,-0.622 -4.256,-1.352 -6.189,-2.187 v 0 c -4.193,-1.814 -5.982,-6.923 -3.903,-11.079 v 0 c 1.881,-3.762 6.249,-5.328 10.044,-3.688 v 0 c 0.877,0.379 1.793,0.728 2.747,1.048 v 0 c 3.554,1.189 7.175,1.782 10.861,1.782 v 0 c 5.311,0 9.296,-1.211 11.952,-3.631 v 0 c 2.655,-2.422 3.984,-5.874 3.984,-10.362 v 0 H 410.9 c -10.112,0 -17.588,-1.895 -22.427,-5.677 v 0 c -4.842,-3.785 -7.262,-8.977 -7.262,-15.577 v 0 c 0,-4.137 1.029,-7.834 3.085,-11.09 v 0 c 2.056,-3.256 5.031,-5.807 8.933,-7.656 v 0 c 3.897,-1.848 8.502,-2.773 13.815,-2.773 v 0 c 10.282,0 17.307,3.3 21.077,9.901 v 0 c 0,-4.884 3.856,-8.844 8.611,-8.844 v 0 h 1.543 c 4.755,0 8.61,3.96 8.61,8.844 v 0 31.684 c 0,10.561 -2.871,18.458 -8.61,23.696 v 0 c -5.742,5.234 -13.967,7.854 -24.676,7.854 v 0 c -5.57,0 -10.988,-0.748 -16.259,-2.245 m 6.427,-54.718 c -2.014,1.539 -3.02,3.631 -3.02,6.271 v 0 c 0,5.545 4.113,8.317 12.337,8.317 v 0 h 13.752 v -7.262 c -1.114,-3.168 -3,-5.567 -5.655,-7.193 v 0 c -2.656,-1.63 -5.699,-2.443 -9.124,-2.443 v 0 c -3.515,0 -6.278,0.77 -8.29,2.31"
         id="path110" /></clipPath><linearGradient
       x1="0"
       y1="0"
       x2="1"
       y2="0"
       gradientUnits="userSpaceOnUse"
       gradientTransform="matrix(0,-73.134209,-73.134209,0,414.04822,369.51169)"
       spreadMethod="pad"
       id="linearGradient130"><stop
         style="stop-opacity:1;stop-color:#ffffff"
         offset="0"
         id="stop122" /><stop
         style="stop-opacity:1;stop-color:#ffffff"
         offset="0.10819503"
         id="stop124" /><stop
         style="stop-opacity:1;stop-color:#ffffff"
         offset="0.348255"
         id="stop126" /><stop
         style="stop-opacity:0;stop-color:#ffffff"
         offset="1"
         id="stop128" /></linearGradient><mask
       maskUnits="userSpaceOnUse"
       x="0"
       y="0"
       width="1"
       height="1"
       id="mask132"><g
         id="g142"><g
           id="g140"><g
             id="g138"><g
               id="g136"><path
                 d="M -32768,32767 H 32767 V -32768 H -32768 Z"
                 style="fill:url(#linearGradient130);stroke:none"
                 id="path134" /></g></g></g></g></mask><linearGradient
       x1="0"
       y1="0"
       x2="1"
       y2="0"
       gradientUnits="userSpaceOnUse"
       gradientTransform="matrix(0,-73.134209,-73.134209,0,414.04822,369.51169)"
       spreadMethod="pad"
       id="linearGradient156"><stop
         style="stop-opacity:1;stop-color:#afdb1f"
         offset="0"
         id="stop148" /><stop
         style="stop-opacity:1;stop-color:#afdb1f"
         offset="0.10819503"
         id="stop150" /><stop
         style="stop-opacity:1;stop-color:#afdb1f"
         offset="0.348255"
         id="stop152" /><stop
         style="stop-opacity:1;stop-color:#afdb1f"
         offset="1"
         id="stop154" /></linearGradient><clipPath
       clipPathUnits="userSpaceOnUse"
       id="clipPath166"><path
         d="M 0,595.276 H 841.89 V 0 H 0 Z"
         id="path164" /></clipPath><clipPath
       clipPathUnits="userSpaceOnUse"
       id="clipPath178"><path
         d="m 135.861,395.141 c -2.236,-2.263 -3.354,-5.406 -3.354,-9.43 v 0 -27.014 H 95.09 v 27.014 c 0,4.024 -1.169,7.242 -3.508,9.657 v 0 c -2.135,2.112 -4.827,3.169 -8.081,3.169 v 0 c -3.356,0 -6.151,-1.135 -8.386,-3.404 v 0 c -2.237,-2.269 -3.353,-5.419 -3.353,-9.452 v 0 -76.994 c 0,-4.033 1.142,-7.21 3.429,-9.529 v 0 c 2.287,-2.32 5.058,-3.479 8.31,-3.479 v 0 c 3.254,0 5.999,1.159 8.235,3.484 v 0 c 2.235,2.322 3.354,5.502 3.354,9.543 v 0 28.783 h 37.417 v -28.783 c 0,-4.041 1.144,-7.221 3.43,-9.543 v 0 c 2.287,-2.325 5.058,-3.484 8.31,-3.484 v 0 c 3.252,0 5.999,1.159 8.235,3.479 v 0 c 2.234,2.319 3.355,5.496 3.355,9.529 v 0 76.994 c 0,4.033 -1.095,7.183 -3.28,9.452 v 0 c -2.187,2.269 -4.955,3.404 -8.31,3.404 v 0 c -3.356,0 -6.151,-1.133 -8.386,-3.396"
         id="path176" /></clipPath><linearGradient
       x1="0"
       y1="0"
       x2="1"
       y2="0"
       gradientUnits="userSpaceOnUse"
       gradientTransform="matrix(0,-102.85854,-102.85854,0,113.79873,398.53751)"
       spreadMethod="pad"
       id="linearGradient196"><stop
         style="stop-opacity:1;stop-color:#ffffff"
         offset="0"
         id="stop188" /><stop
         style="stop-opacity:1;stop-color:#ffffff"
         offset="0.10819503"
         id="stop190" /><stop
         style="stop-opacity:1;stop-color:#ffffff"
         offset="0.348255"
         id="stop192" /><stop
         style="stop-opacity:0;stop-color:#ffffff"
         offset="1"
         id="stop194" /></linearGradient><mask
       maskUnits="userSpaceOnUse"
       x="0"
       y="0"
       width="1"
       height="1"
       id="mask198"><g
         id="g208"><g
           id="g206"><g
             id="g204"><g
               id="g202"><path
                 d="M -32768,32767 H 32767 V -32768 H -32768 Z"
                 style="fill:url(#linearGradient196);stroke:none"
                 id="path200" /></g></g></g></g></mask><linearGradient
       x1="0"
       y1="0"
       x2="1"
       y2="0"
       gradientUnits="userSpaceOnUse"
       gradientTransform="matrix(0,-102.85854,-102.85854,0,113.79873,398.53751)"
       spreadMethod="pad"
       id="linearGradient222"><stop
         style="stop-opacity:1;stop-color:#afdb1f"
         offset="0"
         id="stop214" /><stop
         style="stop-opacity:1;stop-color:#afdb1f"
         offset="0.10819503"
         id="stop216" /><stop
         style="stop-opacity:1;stop-color:#afdb1f"
         offset="0.348255"
         id="stop218" /><stop
         style="stop-opacity:1;stop-color:#afdb1f"
         offset="1"
         id="stop220" /></linearGradient><clipPath
       clipPathUnits="userSpaceOnUse"
       id="clipPath232"><path
         d="M 0,595.276 H 841.89 V 0 H 0 Z"
         id="path230" /></clipPath><clipPath
       clipPathUnits="userSpaceOnUse"
       id="clipPath244"><path
         d="m 246.406,359.758 c -7.574,-7.374 -11.36,-16.361 -11.36,-26.965 v 0 c 0,-10.301 3.786,-19.14 11.36,-26.51 v 0 c 7.272,-7.071 15.703,-10.604 25.3,-10.604 v 0 c 7.673,0 14.642,1.842 20.904,5.528 v 0 c 6.26,3.686 9.392,7.853 9.392,12.498 v 0 c 0,2.626 -0.984,4.947 -2.954,6.969 v 0 c -1.97,2.018 -4.369,3.029 -7.195,3.029 v 0 c -2.222,0 -5.076,-1.313 -8.559,-3.937 v 0 c -3.484,-2.629 -7.196,-3.94 -11.134,-3.94 v 0 c -4.446,0 -8.332,1.641 -11.666,4.924 v 0 c -3.332,3.281 -4.998,7.143 -4.998,11.589 v 0 c 0,4.947 1.614,9.138 4.848,12.572 v 0 c 3.23,3.432 7.169,5.151 11.816,5.151 v 0 c 4.139,0 8.279,-1.567 12.421,-4.696 v 0 c 2.221,-1.719 4.644,-2.575 7.272,-2.575 v 0 c 2.321,0 4.442,0.985 6.362,2.954 v 0 c 1.917,1.969 2.878,4.317 2.878,7.044 v 0 c 0,4.443 -3.029,8.457 -9.089,12.043 v 0 c -6.06,3.584 -13.231,5.378 -21.512,5.378 v 0 c -8.886,0 -16.916,-3.484 -24.086,-10.452"
         id="path242" /></clipPath><linearGradient
       x1="0"
       y1="0"
       x2="1"
       y2="0"
       gradientUnits="userSpaceOnUse"
       gradientTransform="matrix(0,-74.531265,-74.531265,0,268.52383,370.21024)"
       spreadMethod="pad"
       id="linearGradient262"><stop
         style="stop-opacity:1;stop-color:#ffffff"
         offset="0"
         id="stop254" /><stop
         style="stop-opacity:1;stop-color:#ffffff"
         offset="0.10819503"
         id="stop256" /><stop
         style="stop-opacity:1;stop-color:#ffffff"
         offset="0.348255"
         id="stop258" /><stop
         style="stop-opacity:0;stop-color:#ffffff"
         offset="1"
         id="stop260" /></linearGradient><mask
       maskUnits="userSpaceOnUse"
       x="0"
       y="0"
       width="1"
       height="1"
       id="mask264"><g
         id="g274"><g
           id="g272"><g
             id="g270"><g
               id="g268"><path
                 d="M -32768,32767 H 32767 V -32768 H -32768 Z"
                 style="fill:url(#linearGradient262);stroke:none"
                 id="path266" /></g></g></g></g></mask><linearGradient
       x1="0"
       y1="0"
       x2="1"
       y2="0"
       gradientUnits="userSpaceOnUse"
       gradientTransform="matrix(0,-74.531265,-74.531265,0,268.52383,370.21024)"
       spreadMethod="pad"
       id="linearGradient288"><stop
         style="stop-opacity:1;stop-color:#afdb1f"
         offset="0"
         id="stop280" /><stop
         style="stop-opacity:1;stop-color:#afdb1f"
         offset="0.10819503"
         id="stop282" /><stop
         style="stop-opacity:1;stop-color:#afdb1f"
         offset="0.348255"
         id="stop284" /><stop
         style="stop-opacity:1;stop-color:#afdb1f"
         offset="1"
         id="stop286" /></linearGradient><clipPath
       clipPathUnits="userSpaceOnUse"
       id="clipPath298"><path
         d="M 0,595.276 H 841.89 V 0 H 0 Z"
         id="path296" /></clipPath><clipPath
       clipPathUnits="userSpaceOnUse"
       id="clipPath310"><path
         d="m 313.501,394.826 c -1.969,-1.969 -2.953,-4.722 -2.953,-8.255 v 0 -79.531 c 0,-3.536 0.984,-6.312 2.953,-8.332 v 0 c 1.971,-2.019 4.368,-3.029 7.197,-3.029 v 0 c 2.826,0 5.199,1.01 7.12,3.029 v 0 c 1.917,2.02 2.878,4.796 2.878,8.332 v 0 19.542 l 23.934,-25.298 c 3.535,-3.738 6.765,-5.605 9.695,-5.605 v 0 c 2.928,0 5.402,1.01 7.423,3.029 v 0 c 2.019,2.02 3.03,4.443 3.03,7.272 v 0 c 0,2.826 -1.87,6.059 -5.605,9.695 v 0 l -20.602,19.844 19.239,13.937 c 2.726,2.019 4.492,3.534 5.302,4.545 v 0 c 1.11,1.614 1.666,3.938 1.666,6.968 v 0 c 0,1.515 -0.632,3.106 -1.894,4.772 v 0 c -1.263,1.667 -2.753,2.852 -4.468,3.56 v 0 c -1.011,0.402 -2.779,0.606 -5.302,0.606 v 0 c -1.416,0 -3.939,-1.416 -7.575,-4.242 v 0 l -24.843,-19.542 v 40.448 c 0,3.533 -0.961,6.286 -2.878,8.255 v 0 c -1.921,1.971 -4.294,2.954 -7.12,2.954 v 0 c -2.829,0 -5.226,-0.983 -7.197,-2.954"
         id="path308" /></clipPath><linearGradient
       x1="0"
       y1="0"
       x2="1"
       y2="0"
       gradientUnits="userSpaceOnUse"
       gradientTransform="matrix(0,-102.10145,-102.10145,0,342.66284,397.78043)"
       spreadMethod="pad"
       id="linearGradient328"><stop
         style="stop-opacity:1;stop-color:#ffffff"
         offset="0"
         id="stop320" /><stop
         style="stop-opacity:1;stop-color:#ffffff"
         offset="0.10819503"
         id="stop322" /><stop
         style="stop-opacity:1;stop-color:#ffffff"
         offset="0.348255"
         id="stop324" /><stop
         style="stop-opacity:0;stop-color:#ffffff"
         offset="1"
         id="stop326" /></linearGradient><mask
       maskUnits="userSpaceOnUse"
       x="0"
       y="0"
       width="1"
       height="1"
       id="mask330"><g
         id="g340"><g
           id="g338"><g
             id="g336"><g
               id="g334"><path
                 d="M -32768,32767 H 32767 V -32768 H -32768 Z"
                 style="fill:url(#linearGradient328);stroke:none"
                 id="path332" /></g></g></g></g></mask><linearGradient
       x1="0"
       y1="0"
       x2="1"
       y2="0"
       gradientUnits="userSpaceOnUse"
       gradientTransform="matrix(0,-102.10145,-102.10145,0,342.66284,397.78043)"
       spreadMethod="pad"
       id="linearGradient354"><stop
         style="stop-opacity:1;stop-color:#afdb1f"
         offset="0"
         id="stop346" /><stop
         style="stop-opacity:1;stop-color:#afdb1f"
         offset="0.10819503"
         id="stop348" /><stop
         style="stop-opacity:1;stop-color:#afdb1f"
         offset="0.348255"
         id="stop350" /><stop
         style="stop-opacity:1;stop-color:#afdb1f"
         offset="1"
         id="stop352" /></linearGradient><clipPath
       clipPathUnits="userSpaceOnUse"
       id="clipPath364"><path
         d="M 0,595.276 H 841.89 V 0 H 0 Z"
         id="path362" /></clipPath><clipPath
       clipPathUnits="userSpaceOnUse"
       id="clipPath376"><path
         d="m 465.418,390.707 c -6.463,-5.605 -9.694,-12.903 -9.694,-21.89 v 0 c 0,-7.575 2.371,-13.483 7.119,-17.723 v 0 c 3.939,-3.435 10.453,-6.515 19.543,-9.242 v 0 c 9.088,-2.727 14.289,-4.445 15.602,-5.149 v 0 c 4.14,-1.92 6.211,-4.697 6.211,-8.333 v 0 c 0,-3.332 -1.136,-6.058 -3.409,-8.18 v 0 c -2.27,-2.121 -5.226,-3.181 -8.862,-3.181 v 0 c -4.543,0 -9.748,2.576 -15.603,7.725 v 0 c -4.444,3.939 -8.483,5.908 -12.118,5.908 v 0 c -3.029,0 -5.581,-1.112 -7.651,-3.332 v 0 c -2.071,-2.223 -3.104,-4.848 -3.104,-7.878 v 0 c 0,-6.16 3.49,-11.664 10.474,-16.512 v 0 c 7.489,-5.251 16.747,-7.877 27.778,-7.877 v 0 c 10.424,0 18.999,3.105 25.728,9.316 v 0 c 6.731,6.211 10.097,14.013 10.097,23.406 v 0 c 0,9.391 -3.195,16.662 -9.576,21.813 v 0 c -5.267,4.342 -14.284,8.079 -27.048,11.21 v 0 c -8.204,2.019 -12.307,5.302 -12.307,9.846 v 0 c 0,2.424 1.11,4.545 3.333,6.363 v 0 c 2.219,1.818 4.999,2.727 8.331,2.727 v 0 c 3.534,0 7.371,-1.617 11.513,-4.847 v 0 c 1.716,-1.416 3.484,-2.779 5.302,-4.091 v 0 c 1.817,-1.313 3.584,-1.969 5.303,-1.969 v 0 c 2.928,0 5.376,1.008 7.347,3.03 v 0 c 1.97,2.019 2.953,4.897 2.953,8.634 v 0 c 0,4.545 -2.929,8.735 -8.786,12.573 v 0 c -6.464,4.039 -14.24,6.061 -23.328,6.061 v 0 c -10.303,0 -18.685,-2.803 -25.148,-8.408"
         id="path374" /></clipPath><linearGradient
       x1="0"
       y1="0"
       x2="1"
       y2="0"
       gradientUnits="userSpaceOnUse"
       gradientTransform="matrix(0,-104.07131,-104.07131,0,490.48929,399.1145)"
       spreadMethod="pad"
       id="linearGradient394"><stop
         style="stop-opacity:1;stop-color:#ffffff"
         offset="0"
         id="stop386" /><stop
         style="stop-opacity:1;stop-color:#ffffff"
         offset="0.10819503"
         id="stop388" /><stop
         style="stop-opacity:1;stop-color:#ffffff"
         offset="0.348255"
         id="stop390" /><stop
         style="stop-opacity:0;stop-color:#ffffff"
         offset="1"
         id="stop392" /></linearGradient><mask
       maskUnits="userSpaceOnUse"
       x="0"
       y="0"
       width="1"
       height="1"
       id="mask396"><g
         id="g406"><g
           id="g404"><g
             id="g402"><g
               id="g400"><path
                 d="M -32768,32767 H 32767 V -32768 H -32768 Z"
                 style="fill:url(#linearGradient394);stroke:none"
                 id="path398" /></g></g></g></g></mask><linearGradient
       x1="0"
       y1="0"
       x2="1"
       y2="0"
       gradientUnits="userSpaceOnUse"
       gradientTransform="matrix(0,-104.07131,-104.07131,0,490.48929,399.1145)"
       spreadMethod="pad"
       id="linearGradient420"><stop
         style="stop-opacity:1;stop-color:#afdb1f"
         offset="0"
         id="stop412" /><stop
         style="stop-opacity:1;stop-color:#afdb1f"
         offset="0.10819503"
         id="stop414" /><stop
         style="stop-opacity:1;stop-color:#afdb1f"
         offset="0.348255"
         id="stop416" /><stop
         style="stop-opacity:1;stop-color:#afdb1f"
         offset="1"
         id="stop418" /></linearGradient><clipPath
       clipPathUnits="userSpaceOnUse"
       id="clipPath430"><path
         d="M 0,595.276 H 841.89 V 0 H 0 Z"
         id="path428" /></clipPath><clipPath
       clipPathUnits="userSpaceOnUse"
       id="clipPath442"><path
         d="m 551.468,366.583 c -6.045,-3.266 -10.769,-7.794 -14.171,-13.59 v 0 c -3.405,-5.796 -5.104,-12.372 -5.104,-19.73 v 0 c 0,-7.361 1.699,-13.937 5.104,-19.731 v 0 c 3.402,-5.795 8.126,-10.326 14.171,-13.591 v 0 c 6.045,-3.265 12.872,-4.898 20.484,-4.898 v 0 c 7.611,0 14.417,1.633 20.418,4.898 v 0 c 5.685,3.093 10.189,7.339 13.544,12.705 v 0 l -4.647,23.841 c -1.368,7.018 -0.352,13.628 2.977,19.84 v 0 c -3.136,4.221 -7.084,7.649 -11.874,10.256 v 0 c -6.001,3.265 -12.807,4.898 -20.418,4.898 v 0 c -7.612,0 -14.439,-1.633 -20.484,-4.898 m 7.186,-48.29 c -3.492,3.724 -5.238,8.713 -5.238,14.97 v 0 c 0,6.254 1.746,11.245 5.238,14.969 v 0 c 3.492,3.726 7.926,5.588 13.298,5.588 v 0 c 5.375,0 9.784,-1.862 13.232,-5.588 v 0 c 3.447,-3.724 5.172,-8.715 5.172,-14.969 v 0 c 0,-6.257 -1.725,-11.246 -5.172,-14.97 v 0 c -3.448,-3.726 -7.857,-5.589 -13.232,-5.589 v 0 c -5.372,0 -9.806,1.863 -13.298,5.589"
         id="path440" /></clipPath><linearGradient
       x1="0"
       y1="0"
       x2="1"
       y2="0"
       gradientUnits="userSpaceOnUse"
       gradientTransform="matrix(0,-76.437767,-76.437767,0,569.05316,371.48099)"
       spreadMethod="pad"
       id="linearGradient460"><stop
         style="stop-opacity:1;stop-color:#ffffff"
         offset="0"
         id="stop452" /><stop
         style="stop-opacity:1;stop-color:#ffffff"
         offset="0.10819503"
         id="stop454" /><stop
         style="stop-opacity:1;stop-color:#ffffff"
         offset="0.348255"
         id="stop456" /><stop
         style="stop-opacity:0;stop-color:#ffffff"
         offset="1"
         id="stop458" /></linearGradient><mask
       maskUnits="userSpaceOnUse"
       x="0"
       y="0"
       width="1"
       height="1"
       id="mask462"><g
         id="g472"><g
           id="g470"><g
             id="g468"><g
               id="g466"><path
                 d="M -32768,32767 H 32767 V -32768 H -32768 Z"
                 style="fill:url(#linearGradient460);stroke:none"
                 id="path464" /></g></g></g></g></mask><linearGradient
       x1="0"
       y1="0"
       x2="1"
       y2="0"
       gradientUnits="userSpaceOnUse"
       gradientTransform="matrix(0,-76.437767,-76.437767,0,569.05316,371.48099)"
       spreadMethod="pad"
       id="linearGradient486"><stop
         style="stop-opacity:1;stop-color:#afdb1f"
         offset="0"
         id="stop478" /><stop
         style="stop-opacity:1;stop-color:#afdb1f"
         offset="0.10819503"
         id="stop480" /><stop
         style="stop-opacity:1;stop-color:#afdb1f"
         offset="0.348255"
         id="stop482" /><stop
         style="stop-opacity:1;stop-color:#afdb1f"
         offset="1"
         id="stop484" /></linearGradient><clipPath
       clipPathUnits="userSpaceOnUse"
       id="clipPath496"><path
         d="M 0,595.276 H 841.89 V 0 H 0 Z"
         id="path494" /></clipPath><clipPath
       clipPathUnits="userSpaceOnUse"
       id="clipPath504"><path
         d="M 604.803,406.398 H 736.205 V 347.371 H 604.803 Z"
         id="path502" /></clipPath><linearGradient
       x1="0"
       y1="0"
       x2="1"
       y2="0"
       gradientUnits="userSpaceOnUse"
       gradientTransform="matrix(-13.481909,69.176498,-69.176498,-13.481909,741.96692,320.17331)"
       spreadMethod="pad"
       id="linearGradient532"><stop
         style="stop-opacity:1;stop-color:#1c1719"
         offset="0"
         id="stop526" /><stop
         style="stop-opacity:1;stop-color:#1c1719"
         offset="0.3497"
         id="stop528" /><stop
         style="stop-opacity:1;stop-color:#56565a"
         offset="1"
         id="stop530" /></linearGradient><linearGradient
       x1="0"
       y1="0"
       x2="1"
       y2="0"
       gradientUnits="userSpaceOnUse"
       gradientTransform="matrix(-13.481909,69.176498,-69.176498,-13.481909,726.51331,317.16153)"
       spreadMethod="pad"
       id="linearGradient554"><stop
         style="stop-opacity:1;stop-color:#1c1719"
         offset="0"
         id="stop548" /><stop
         style="stop-opacity:1;stop-color:#1c1719"
         offset="0.3497"
         id="stop550" /><stop
         style="stop-opacity:1;stop-color:#56565a"
         offset="1"
         id="stop552" /></linearGradient><clipPath
       clipPathUnits="userSpaceOnUse"
       id="clipPath564"><path
         d="M 0,595.276 H 841.89 V 0 H 0 Z"
         id="path562" /></clipPath><clipPath
       clipPathUnits="userSpaceOnUse"
       id="clipPath572"><path
         d="m 731.235,357.716 h 15.009 v -38.619 h -15.009 z"
         id="path570" /></clipPath><radialGradient
       fx="0"
       fy="0"
       cx="0"
       cy="0"
       r="1"
       gradientUnits="userSpaceOnUse"
       gradientTransform="matrix(11.219946,2.1866717,-2.1866717,11.219946,762.37512,382.72183)"
       spreadMethod="pad"
       id="radialGradient606"><stop
         style="stop-opacity:1;stop-color:#a9aba9"
         offset="0"
         id="stop602" /><stop
         style="stop-opacity:1;stop-color:#423d45"
         offset="1"
         id="stop604" /></radialGradient><clipPath
       clipPathUnits="userSpaceOnUse"
       id="clipPath616"><path
         d="M 0,595.276 H 841.89 V 0 H 0 Z"
         id="path614" /></clipPath><clipPath
       clipPathUnits="userSpaceOnUse"
       id="clipPath644"><path
         d="m 753.267,386.642 h 6.45 v -3.566 h -6.45 z"
         id="path642" /></clipPath><clipPath
       clipPathUnits="userSpaceOnUse"
       id="clipPath660"><path
         d="m 675.484,380.263 c -7.503,-1.463 -13.925,-5.592 -19.27,-12.336 v 0 c -8.107,4.234 -16.044,5.567 -23.765,4.062 v 0 c -8.05,-1.569 -14.633,-6.015 -19.756,-13.334 v 0 c -5.131,-7.264 -6.873,-15.112 -5.231,-23.54 v 0 l 6.369,-32.684 c 0.69,-3.533 2.164,-6.182 4.514,-7.811 v 0 c 2.459,-1.611 5.108,-2.167 7.935,-1.615 v 0 c 2.827,0.551 5.019,2.05 6.583,4.444 v 0 c 1.513,2.382 1.94,5.402 1.252,8.936 v 0 l -5.352,27.463 c -2.098,10.765 0.712,16.902 8.433,18.407 v 0 c 7.559,1.473 12.363,-3.18 14.46,-13.946 v 0 l 5.353,-27.463 c 0.689,-3.533 2.164,-6.183 4.513,-7.812 v 0 c 2.35,-1.631 4.944,-2.197 7.771,-1.647 v 0 c 2.828,0.551 5.019,2.051 6.586,4.446 v 0 c 1.62,2.402 2.102,5.433 1.412,8.966 v 0 l -5.352,27.464 c -2.077,10.657 0.572,16.761 8.055,18.333 v 0 c 4.786,0.932 8.537,-0.651 11.344,-4.619 v 0 c 1.175,-1.691 2.17,-4.77 3.039,-9.23 v 0 l 5.351,-27.461 c 0.69,-3.535 2.166,-6.182 4.515,-7.812 v 0 c 2.351,-1.632 4.943,-2.2 7.772,-1.648 v 0 c 2.884,0.561 5.019,2.052 6.584,4.445 v 0 c 1.621,2.405 2.102,5.432 1.414,8.968 v 0 l -6.127,31.431 c -1.716,8.808 -6.343,15.754 -13.86,20.725 v 0 c -5.58,3.689 -11.516,5.536 -17.831,5.536 v 0 c -2.19,0 -4.428,-0.223 -6.711,-0.668"
         id="path658" /></clipPath><linearGradient
       x1="0"
       y1="0"
       x2="1"
       y2="0"
       gradientUnits="userSpaceOnUse"
       gradientTransform="matrix(20.897974,-77.992294,-77.992294,-20.897974,650.89539,377.01108)"
       spreadMethod="pad"
       id="linearGradient678"><stop
         style="stop-opacity:1;stop-color:#ffffff"
         offset="0"
         id="stop670" /><stop
         style="stop-opacity:1;stop-color:#ffffff"
         offset="0.10819503"
         id="stop672" /><stop
         style="stop-opacity:1;stop-color:#ffffff"
         offset="0.348255"
         id="stop674" /><stop
         style="stop-opacity:0;stop-color:#ffffff"
         offset="1"
         id="stop676" /></linearGradient><mask
       maskUnits="userSpaceOnUse"
       x="0"
       y="0"
       width="1"
       height="1"
       id="mask680"><g
         id="g690"><g
           id="g688"><g
             id="g686"><g
               id="g684"><path
                 d="M -32768,32767 H 32767 V -32768 H -32768 Z"
                 style="fill:url(#linearGradient678);stroke:none"
                 id="path682" /></g></g></g></g></mask><linearGradient
       x1="0"
       y1="0"
       x2="1"
       y2="0"
       gradientUnits="userSpaceOnUse"
       gradientTransform="matrix(20.897974,-77.992294,-77.992294,-20.897974,650.89539,377.01108)"
       spreadMethod="pad"
       id="linearGradient704"><stop
         style="stop-opacity:1;stop-color:#afdb1f"
         offset="0"
         id="stop696" /><stop
         style="stop-opacity:1;stop-color:#afdb1f"
         offset="0.10819503"
         id="stop698" /><stop
         style="stop-opacity:1;stop-color:#afdb1f"
         offset="0.348255"
         id="stop700" /><stop
         style="stop-opacity:1;stop-color:#afdb1f"
         offset="1"
         id="stop702" /></linearGradient><clipPath
       clipPathUnits="userSpaceOnUse"
       id="clipPath714"><path
         d="M 0,595.276 H 841.89 V 0 H 0 Z"
         id="path712" /></clipPath><clipPath
       clipPathUnits="userSpaceOnUse"
       id="clipPath722"><path
         d="M 614.536,369.63 H 745.588 V 341.011 H 614.536 Z"
         id="path720" /></clipPath><clipPath
       clipPathUnits="userSpaceOnUse"
       id="clipPath738"><path
         d="M 613.762,402.333 H 745.181 V 343.306 H 613.762 Z"
         id="path736" /></clipPath></defs><sodipodi:namedview
     pagecolor="#ffffff"
     bordercolor="#666666"
     borderopacity="1"
     objecttolerance="10"
     gridtolerance="10"
     guidetolerance="10"
     inkscape:pageopacity="0"
     inkscape:pageshadow="2"
     inkscape:window-width="1680"
     inkscape:window-height="1021"
     id="namedview4"
     showgrid="false"
     fit-margin-top="0"
     fit-margin-left="0"
     fit-margin-right="0"
     fit-margin-bottom="0"
     inkscape:zoom="0.79122959"
     inkscape:cx="471.63165"
     inkscape:cy="160.66056"
     inkscape:window-x="0"
     inkscape:window-y="0"
     inkscape:window-maximized="1"
     inkscape:current-layer="g10" /><g
     id="g10"
     inkscape:groupmode="layer"
     inkscape:label="Logotip HackaSom"
     transform="matrix(1.3333333,0,0,-1.3333333,-44.814182,574.49715)"><g
       id="g26"><g
         id="g28"
         clip-path="url(#clipPath32)"><path
           d="M 860.539,-24.014 H -18.649 v 640.028 h 879.188 z"
           style="fill:none;stroke:#231f20;stroke-width:1;stroke-linecap:butt;stroke-linejoin:miter;stroke-miterlimit:10;stroke-dasharray:none;stroke-opacity:1"
           id="path34" /><g
           id="g36"
           transform="translate(202.5742,311.9826)"><path
             d="m 0,0 c 2.654,1.627 4.541,4.026 5.655,7.195 v 7.26 H -8.097 c -8.225,0 -12.338,-2.771 -12.338,-8.317 0,-2.639 1.006,-4.731 3.02,-6.27 2.012,-1.54 4.776,-2.31 8.29,-2.31 3.426,0 6.468,0.813 9.125,2.442 m 17.093,48.976 c 5.74,-5.237 8.611,-13.134 8.611,-23.695 V -6.402 c 0,-4.885 -3.855,-8.845 -8.611,-8.845 h -1.542 c -4.756,0 -8.611,3.96 -8.611,8.845 -3.771,-6.601 -10.796,-9.902 -21.078,-9.902 -5.313,0 -9.918,0.925 -13.815,2.773 -3.901,1.848 -6.877,4.4 -8.933,7.656 -2.055,3.255 -3.084,6.952 -3.084,11.09 0,6.6 2.419,11.791 7.262,15.577 4.838,3.783 12.315,5.676 22.426,5.676 H 5.655 c 0,4.49 -1.33,7.942 -3.984,10.363 -2.657,2.42 -6.641,3.631 -11.953,3.631 -3.685,0 -7.306,-0.594 -10.86,-1.782 -0.954,-0.32 -1.87,-0.669 -2.748,-1.048 -3.794,-1.64 -8.162,-0.074 -10.043,3.687 -2.079,4.157 -0.291,9.265 3.902,11.079 1.934,0.836 3.997,1.565 6.19,2.188 5.27,1.497 10.688,2.245 16.258,2.245 10.709,0 18.935,-2.62 24.676,-7.855"
             style="fill:#85ce28;fill-opacity:1;fill-rule:nonzero;stroke:none"
             id="path38" /></g></g></g><g
       id="g40"><g
         id="g42"
         clip-path="url(#clipPath46)"><g
           id="g48"><g
             id="g50" /><g
             id="g78"
             mask="url(#mask66)"><g
               id="g80"><path
                 d="m 178.733,366.569 c -2.193,-0.623 -4.256,-1.353 -6.189,-2.189 v 0 c -4.194,-1.813 -5.982,-6.922 -3.903,-11.079 v 0 c 1.881,-3.761 6.249,-5.326 10.043,-3.686 v 0 c 0.878,0.379 1.794,0.728 2.749,1.048 v 0 c 3.553,1.187 7.174,1.781 10.859,1.781 v 0 c 5.312,0 9.296,-1.21 11.953,-3.63 v 0 c 2.654,-2.422 3.984,-5.874 3.984,-10.363 v 0 h -15.937 c -10.111,0 -17.588,-1.893 -22.426,-5.677 v 0 c -4.843,-3.785 -7.262,-8.977 -7.262,-15.576 v 0 c 0,-4.138 1.029,-7.835 3.084,-11.09 v 0 c 2.057,-3.257 5.033,-5.808 8.933,-7.656 v 0 c 3.898,-1.849 8.503,-2.773 13.816,-2.773 v 0 c 10.281,0 17.307,3.3 21.078,9.902 v 0 c 0,-4.886 3.854,-8.846 8.61,-8.846 v 0 h 1.542 c 4.756,0 8.611,3.96 8.611,8.846 v 0 31.682 c 0,10.562 -2.871,18.459 -8.611,23.695 v 0 c -5.741,5.236 -13.967,7.855 -24.676,7.855 v 0 c -5.57,0 -10.988,-0.748 -16.258,-2.244 m 6.426,-54.719 c -2.014,1.539 -3.02,3.632 -3.02,6.271 v 0 c 0,5.545 4.113,8.317 12.338,8.317 v 0 h 13.752 v -7.26 c -1.115,-3.169 -3.001,-5.569 -5.655,-7.196 v 0 c -2.656,-1.629 -5.699,-2.441 -9.124,-2.441 v 0 c -3.515,0 -6.279,0.769 -8.291,2.309"
                 style="fill:url(#linearGradient90);stroke:none"
                 id="path92" /></g></g></g></g></g><g
       id="g94"><g
         id="g96"
         clip-path="url(#clipPath100)"><g
           id="g102"
           transform="translate(421.1812,312.6814)"><path
             d="m 0,0 c 2.655,1.627 4.541,4.026 5.655,7.194 v 7.261 H -8.097 c -8.225,0 -12.338,-2.771 -12.338,-8.317 0,-2.639 1.006,-4.731 3.02,-6.27 2.012,-1.54 4.776,-2.31 8.29,-2.31 3.426,0 6.469,0.813 9.125,2.442 m 17.093,48.976 c 5.74,-5.237 8.611,-13.134 8.611,-23.695 V -6.403 c 0,-4.885 -3.855,-8.845 -8.611,-8.845 h -1.542 c -4.756,0 -8.611,3.96 -8.611,8.845 -3.771,-6.6 -10.795,-9.901 -21.077,-9.901 -5.313,0 -9.919,0.925 -13.816,2.773 -3.901,1.848 -6.877,4.4 -8.932,7.656 -2.056,3.255 -3.085,6.952 -3.085,11.09 0,6.599 2.42,11.791 7.262,15.577 4.839,3.782 12.315,5.676 22.426,5.676 H 5.655 c 0,4.489 -1.329,7.941 -3.984,10.363 -2.656,2.42 -6.641,3.631 -11.953,3.631 -3.685,0 -7.305,-0.594 -10.86,-1.783 -0.954,-0.319 -1.87,-0.668 -2.747,-1.047 -3.795,-1.64 -8.163,-0.074 -10.044,3.687 -2.079,4.157 -0.291,9.265 3.903,11.079 1.933,0.836 3.996,1.565 6.189,2.188 5.27,1.497 10.688,2.245 16.259,2.245 10.708,0 18.934,-2.621 24.675,-7.855"
             style="fill:#85ce28;fill-opacity:1;fill-rule:nonzero;stroke:none"
             id="path104" /></g></g></g><g
       id="g106"><g
         id="g108"
         clip-path="url(#clipPath112)"><g
           id="g114"><g
             id="g116" /><g
             id="g144"
             mask="url(#mask132)"><g
               id="g146"><path
                 d="m 397.34,367.267 c -2.192,-0.622 -4.256,-1.352 -6.189,-2.187 v 0 c -4.193,-1.814 -5.982,-6.923 -3.903,-11.079 v 0 c 1.881,-3.762 6.249,-5.328 10.044,-3.688 v 0 c 0.877,0.379 1.793,0.728 2.747,1.048 v 0 c 3.554,1.189 7.175,1.782 10.861,1.782 v 0 c 5.311,0 9.296,-1.211 11.952,-3.631 v 0 c 2.655,-2.422 3.984,-5.874 3.984,-10.362 v 0 H 410.9 c -10.112,0 -17.588,-1.895 -22.427,-5.677 v 0 c -4.842,-3.785 -7.262,-8.977 -7.262,-15.577 v 0 c 0,-4.137 1.029,-7.834 3.085,-11.09 v 0 c 2.056,-3.256 5.031,-5.807 8.933,-7.656 v 0 c 3.897,-1.848 8.502,-2.773 13.815,-2.773 v 0 c 10.282,0 17.307,3.3 21.077,9.901 v 0 c 0,-4.884 3.856,-8.844 8.611,-8.844 v 0 h 1.543 c 4.755,0 8.61,3.96 8.61,8.844 v 0 31.684 c 0,10.561 -2.871,18.458 -8.61,23.696 v 0 c -5.742,5.234 -13.967,7.854 -24.676,7.854 v 0 c -5.57,0 -10.988,-0.748 -16.259,-2.245 m 6.427,-54.718 c -2.014,1.539 -3.02,3.631 -3.02,6.271 v 0 c 0,5.545 4.113,8.317 12.337,8.317 v 0 h 13.752 v -7.262 c -1.114,-3.168 -3,-5.567 -5.655,-7.193 v 0 c -2.656,-1.63 -5.699,-2.443 -9.124,-2.443 v 0 c -3.515,0 -6.278,0.77 -8.29,2.31"
                 style="fill:url(#linearGradient156);stroke:none"
                 id="path158" /></g></g></g></g></g><g
       id="g160"><g
         id="g162"
         clip-path="url(#clipPath166)"><g
           id="g168"
           transform="translate(95.0903,385.7112)"><path
             d="M 0,0 V -27.014 H 37.417 V 0 c 0,4.024 1.118,7.167 3.354,9.43 2.234,2.263 5.03,3.396 8.386,3.396 3.355,0 6.123,-1.135 8.31,-3.404 2.185,-2.269 3.279,-5.42 3.279,-9.453 v -76.993 c 0,-4.033 -1.12,-7.209 -3.354,-9.529 -2.237,-2.32 -4.983,-3.479 -8.235,-3.479 -3.252,0 -6.023,1.159 -8.31,3.484 -2.286,2.321 -3.43,5.503 -3.43,9.543 v 28.783 H 0 v -28.783 c 0,-4.04 -1.119,-7.222 -3.354,-9.543 -2.237,-2.325 -4.982,-3.484 -8.235,-3.484 -3.252,0 -6.023,1.159 -8.31,3.479 -2.287,2.32 -3.43,5.496 -3.43,9.529 v 76.993 c 0,4.033 1.117,7.184 3.354,9.453 2.234,2.269 5.03,3.404 8.386,3.404 3.253,0 5.946,-1.057 8.081,-3.169 C -1.169,7.243 0,4.024 0,0"
             style="fill:#85ce28;fill-opacity:1;fill-rule:nonzero;stroke:none"
             id="path170" /></g></g></g><g
       id="g172"><g
         id="g174"
         clip-path="url(#clipPath178)"><g
           id="g180"><g
             id="g182" /><g
             id="g210"
             mask="url(#mask198)"><g
               id="g212"><path
                 d="m 135.861,395.141 c -2.236,-2.263 -3.354,-5.406 -3.354,-9.43 v 0 -27.014 H 95.09 v 27.014 c 0,4.024 -1.169,7.242 -3.508,9.657 v 0 c -2.135,2.112 -4.827,3.169 -8.081,3.169 v 0 c -3.356,0 -6.151,-1.135 -8.386,-3.404 v 0 c -2.237,-2.269 -3.353,-5.419 -3.353,-9.452 v 0 -76.994 c 0,-4.033 1.142,-7.21 3.429,-9.529 v 0 c 2.287,-2.32 5.058,-3.479 8.31,-3.479 v 0 c 3.254,0 5.999,1.159 8.235,3.484 v 0 c 2.235,2.322 3.354,5.502 3.354,9.543 v 0 28.783 h 37.417 v -28.783 c 0,-4.041 1.144,-7.221 3.43,-9.543 v 0 c 2.287,-2.325 5.058,-3.484 8.31,-3.484 v 0 c 3.252,0 5.999,1.159 8.235,3.479 v 0 c 2.234,2.319 3.355,5.496 3.355,9.529 v 0 76.994 c 0,4.033 -1.095,7.183 -3.28,9.452 v 0 c -2.187,2.269 -4.955,3.404 -8.31,3.404 v 0 c -3.356,0 -6.151,-1.133 -8.386,-3.396"
                 style="fill:url(#linearGradient222);stroke:none"
                 id="path224" /></g></g></g></g></g><g
       id="g226"><g
         id="g228"
         clip-path="url(#clipPath232)"><g
           id="g234"
           transform="translate(235.0454,332.7932)"><path
             d="m 0,0 c 0,10.604 3.787,19.591 11.361,26.964 7.17,6.968 15.199,10.453 24.086,10.453 8.281,0 15.452,-1.794 21.511,-5.378 6.061,-3.586 9.09,-7.601 9.09,-12.043 0,-2.727 -0.961,-5.075 -2.879,-7.044 -1.919,-1.97 -4.04,-2.954 -6.361,-2.954 -2.628,0 -5.052,0.856 -7.272,2.575 -4.142,3.129 -8.282,4.696 -12.422,4.696 -4.646,0 -8.585,-1.719 -11.816,-5.151 C 22.064,8.684 20.45,4.492 20.45,-0.455 c 0,-4.445 1.667,-8.308 4.999,-11.588 3.333,-3.284 7.219,-4.924 11.665,-4.924 3.939,0 7.65,1.311 11.134,3.939 3.484,2.625 6.337,3.938 8.56,3.938 2.826,0 5.225,-1.011 7.195,-3.029 1.969,-2.022 2.954,-4.343 2.954,-6.969 0,-4.645 -3.132,-8.812 -9.393,-12.497 -6.262,-3.687 -13.231,-5.529 -20.904,-5.529 -9.597,0 -18.028,3.533 -25.299,10.604 C 3.787,-19.14 0,-10.301 0,0"
             style="fill:#85ce28;fill-opacity:1;fill-rule:nonzero;stroke:none"
             id="path236" /></g></g></g><g
       id="g238"><g
         id="g240"
         clip-path="url(#clipPath244)"><g
           id="g246"><g
             id="g248" /><g
             id="g276"
             mask="url(#mask264)"><g
               id="g278"><path
                 d="m 246.406,359.758 c -7.574,-7.374 -11.36,-16.361 -11.36,-26.965 v 0 c 0,-10.301 3.786,-19.14 11.36,-26.51 v 0 c 7.272,-7.071 15.703,-10.604 25.3,-10.604 v 0 c 7.673,0 14.642,1.842 20.904,5.528 v 0 c 6.26,3.686 9.392,7.853 9.392,12.498 v 0 c 0,2.626 -0.984,4.947 -2.954,6.969 v 0 c -1.97,2.018 -4.369,3.029 -7.195,3.029 v 0 c -2.222,0 -5.076,-1.313 -8.559,-3.937 v 0 c -3.484,-2.629 -7.196,-3.94 -11.134,-3.94 v 0 c -4.446,0 -8.332,1.641 -11.666,4.924 v 0 c -3.332,3.281 -4.998,7.143 -4.998,11.589 v 0 c 0,4.947 1.614,9.138 4.848,12.572 v 0 c 3.23,3.432 7.169,5.151 11.816,5.151 v 0 c 4.139,0 8.279,-1.567 12.421,-4.696 v 0 c 2.221,-1.719 4.644,-2.575 7.272,-2.575 v 0 c 2.321,0 4.442,0.985 6.362,2.954 v 0 c 1.917,1.969 2.878,4.317 2.878,7.044 v 0 c 0,4.443 -3.029,8.457 -9.089,12.043 v 0 c -6.06,3.584 -13.231,5.378 -21.512,5.378 v 0 c -8.886,0 -16.916,-3.484 -24.086,-10.452"
                 style="fill:url(#linearGradient288);stroke:none"
                 id="path290" /></g></g></g></g></g><g
       id="g292"><g
         id="g294"
         clip-path="url(#clipPath298)"><g
           id="g300"
           transform="translate(330.6958,386.5705)"><path
             d="m 0,0 v -40.447 l 24.843,19.542 c 3.636,2.826 6.159,4.242 7.575,4.242 2.523,0 4.291,-0.204 5.302,-0.606 1.716,-0.709 3.205,-1.894 4.468,-3.561 1.262,-1.666 1.894,-3.256 1.894,-4.771 0,-3.03 -0.556,-5.354 -1.666,-6.968 -0.81,-1.012 -2.576,-2.527 -5.302,-4.545 L 17.875,-51.051 38.477,-70.896 c 3.735,-3.635 5.605,-6.868 5.605,-9.694 0,-2.829 -1.01,-5.253 -3.03,-7.272 -2.021,-2.019 -4.494,-3.03 -7.422,-3.03 -2.931,0 -6.161,1.868 -9.696,5.605 L 0,-59.988 V -79.53 c 0,-3.536 -0.961,-6.313 -2.878,-8.332 -1.92,-2.019 -4.294,-3.03 -7.12,-3.03 -2.829,0 -5.227,1.011 -7.196,3.03 -1.97,2.019 -2.954,4.796 -2.954,8.332 V 0 c 0,3.534 0.984,6.287 2.954,8.255 1.969,1.971 4.367,2.955 7.196,2.955 2.826,0 5.2,-0.984 7.12,-2.955 C -0.961,6.287 0,3.534 0,0"
             style="fill:#85ce28;fill-opacity:1;fill-rule:nonzero;stroke:none"
             id="path302" /></g></g></g><g
       id="g304"><g
         id="g306"
         clip-path="url(#clipPath310)"><g
           id="g312"><g
             id="g314" /><g
             id="g342"
             mask="url(#mask330)"><g
               id="g344"><path
                 d="m 313.501,394.826 c -1.969,-1.969 -2.953,-4.722 -2.953,-8.255 v 0 -79.531 c 0,-3.536 0.984,-6.312 2.953,-8.332 v 0 c 1.971,-2.019 4.368,-3.029 7.197,-3.029 v 0 c 2.826,0 5.199,1.01 7.12,3.029 v 0 c 1.917,2.02 2.878,4.796 2.878,8.332 v 0 19.542 l 23.934,-25.298 c 3.535,-3.738 6.765,-5.605 9.695,-5.605 v 0 c 2.928,0 5.402,1.01 7.423,3.029 v 0 c 2.019,2.02 3.03,4.443 3.03,7.272 v 0 c 0,2.826 -1.87,6.059 -5.605,9.695 v 0 l -20.602,19.844 19.239,13.937 c 2.726,2.019 4.492,3.534 5.302,4.545 v 0 c 1.11,1.614 1.666,3.938 1.666,6.968 v 0 c 0,1.515 -0.632,3.106 -1.894,4.772 v 0 c -1.263,1.667 -2.753,2.852 -4.468,3.56 v 0 c -1.011,0.402 -2.779,0.606 -5.302,0.606 v 0 c -1.416,0 -3.939,-1.416 -7.575,-4.242 v 0 l -24.843,-19.542 v 40.448 c 0,3.533 -0.961,6.286 -2.878,8.255 v 0 c -1.921,1.971 -4.294,2.954 -7.12,2.954 v 0 c -2.829,0 -5.226,-0.983 -7.197,-2.954"
                 style="fill:url(#linearGradient354);stroke:none"
                 id="path356" /></g></g></g></g></g><g
       id="g358"><g
         id="g360"
         clip-path="url(#clipPath364)"><g
           id="g366"
           transform="translate(490.5654,399.1145)"><path
             d="m 0,0 c 9.089,0 16.864,-2.022 23.328,-6.06 5.858,-3.839 8.786,-8.028 8.786,-12.573 0,-3.738 -0.983,-6.616 -2.952,-8.635 -1.971,-2.021 -4.42,-3.029 -7.348,-3.029 -1.718,0 -3.485,0.655 -5.302,1.969 -1.819,1.311 -3.586,2.675 -5.302,4.09 -4.143,3.231 -7.98,4.848 -11.514,4.848 -3.332,0 -6.111,-0.909 -8.331,-2.727 -2.222,-1.818 -3.332,-3.939 -3.332,-6.363 0,-4.544 4.102,-7.828 12.307,-9.846 12.764,-3.132 21.78,-6.869 27.048,-11.21 6.381,-5.151 9.575,-12.422 9.575,-21.814 0,-9.392 -3.365,-17.194 -10.096,-23.405 -6.729,-6.211 -15.304,-9.316 -25.728,-9.316 -11.032,0 -20.289,2.625 -27.779,7.877 -6.984,4.848 -10.474,10.351 -10.474,16.512 0,3.03 1.033,5.655 3.105,7.878 2.07,2.22 4.621,3.332 7.651,3.332 3.634,0 7.673,-1.969 12.118,-5.908 5.855,-5.15 11.059,-7.725 15.603,-7.725 3.636,0 6.591,1.06 8.862,3.181 2.273,2.121 3.409,4.847 3.409,8.18 0,3.636 -2.071,6.412 -6.211,8.332 -1.314,0.705 -6.515,2.423 -15.603,5.15 -9.09,2.727 -15.603,5.806 -19.543,9.241 -4.747,4.241 -7.119,10.149 -7.119,17.724 0,8.986 3.232,16.284 9.695,21.89 C -18.685,-2.802 -10.302,0 0,0"
             style="fill:#85ce28;fill-opacity:1;fill-rule:nonzero;stroke:none"
             id="path368" /></g></g></g><g
       id="g370"><g
         id="g372"
         clip-path="url(#clipPath376)"><g
           id="g378"><g
             id="g380" /><g
             id="g408"
             mask="url(#mask396)"><g
               id="g410"><path
                 d="m 465.418,390.707 c -6.463,-5.605 -9.694,-12.903 -9.694,-21.89 v 0 c 0,-7.575 2.371,-13.483 7.119,-17.723 v 0 c 3.939,-3.435 10.453,-6.515 19.543,-9.242 v 0 c 9.088,-2.727 14.289,-4.445 15.602,-5.149 v 0 c 4.14,-1.92 6.211,-4.697 6.211,-8.333 v 0 c 0,-3.332 -1.136,-6.058 -3.409,-8.18 v 0 c -2.27,-2.121 -5.226,-3.181 -8.862,-3.181 v 0 c -4.543,0 -9.748,2.576 -15.603,7.725 v 0 c -4.444,3.939 -8.483,5.908 -12.118,5.908 v 0 c -3.029,0 -5.581,-1.112 -7.651,-3.332 v 0 c -2.071,-2.223 -3.104,-4.848 -3.104,-7.878 v 0 c 0,-6.16 3.49,-11.664 10.474,-16.512 v 0 c 7.489,-5.251 16.747,-7.877 27.778,-7.877 v 0 c 10.424,0 18.999,3.105 25.728,9.316 v 0 c 6.731,6.211 10.097,14.013 10.097,23.406 v 0 c 0,9.391 -3.195,16.662 -9.576,21.813 v 0 c -5.267,4.342 -14.284,8.079 -27.048,11.21 v 0 c -8.204,2.019 -12.307,5.302 -12.307,9.846 v 0 c 0,2.424 1.11,4.545 3.333,6.363 v 0 c 2.219,1.818 4.999,2.727 8.331,2.727 v 0 c 3.534,0 7.371,-1.617 11.513,-4.847 v 0 c 1.716,-1.416 3.484,-2.779 5.302,-4.091 v 0 c 1.817,-1.313 3.584,-1.969 5.303,-1.969 v 0 c 2.928,0 5.376,1.008 7.347,3.03 v 0 c 1.97,2.019 2.953,4.897 2.953,8.634 v 0 c 0,4.545 -2.929,8.735 -8.786,12.573 v 0 c -6.464,4.039 -14.24,6.061 -23.328,6.061 v 0 c -10.303,0 -18.685,-2.803 -25.148,-8.408"
                 style="fill:url(#linearGradient420);stroke:none"
                 id="path422" /></g></g></g></g></g><g
       id="g424"><g
         id="g426"
         clip-path="url(#clipPath430)"><g
           id="g432"
           transform="translate(585.1836,318.2927)"><path
             d="m 0,0 c -3.448,-3.726 -7.857,-5.589 -13.231,-5.589 -5.373,0 -9.806,1.863 -13.298,5.589 -3.492,3.725 -5.239,8.713 -5.239,14.97 0,6.254 1.747,11.245 5.239,14.97 3.492,3.726 7.925,5.587 13.298,5.587 5.374,0 9.783,-1.861 13.231,-5.587 C 3.447,26.215 5.172,21.224 5.172,14.97 5.172,8.713 3.447,3.725 0,0 m 19.061,38.034 c -3.136,4.221 -7.084,7.649 -11.874,10.257 -6.001,3.264 -12.807,4.897 -20.418,4.897 -7.613,0 -14.44,-1.633 -20.485,-4.897 -6.044,-3.266 -10.768,-7.795 -14.171,-13.591 -3.405,-5.795 -5.104,-12.372 -5.104,-19.73 0,-7.361 1.699,-13.936 5.104,-19.731 3.403,-5.795 8.127,-10.326 14.171,-13.591 6.045,-3.265 12.872,-4.898 20.485,-4.898 7.611,0 14.417,1.633 20.418,4.898 5.684,3.094 10.188,7.339 13.543,12.705 l -4.646,23.841 c -1.368,7.018 -0.353,13.628 2.977,19.84"
             style="fill:#85ce28;fill-opacity:1;fill-rule:nonzero;stroke:none"
             id="path434" /></g></g></g><g
       id="g436"><g
         id="g438"
         clip-path="url(#clipPath442)"><g
           id="g444"><g
             id="g446" /><g
             id="g474"
             mask="url(#mask462)"><g
               id="g476"><path
                 d="m 551.468,366.583 c -6.045,-3.266 -10.769,-7.794 -14.171,-13.59 v 0 c -3.405,-5.796 -5.104,-12.372 -5.104,-19.73 v 0 c 0,-7.361 1.699,-13.937 5.104,-19.731 v 0 c 3.402,-5.795 8.126,-10.326 14.171,-13.591 v 0 c 6.045,-3.265 12.872,-4.898 20.484,-4.898 v 0 c 7.611,0 14.417,1.633 20.418,4.898 v 0 c 5.685,3.093 10.189,7.339 13.544,12.705 v 0 l -4.647,23.841 c -1.368,7.018 -0.352,13.628 2.977,19.84 v 0 c -3.136,4.221 -7.084,7.649 -11.874,10.256 v 0 c -6.001,3.265 -12.807,4.898 -20.418,4.898 v 0 c -7.612,0 -14.439,-1.633 -20.484,-4.898 m 7.186,-48.29 c -3.492,3.724 -5.238,8.713 -5.238,14.97 v 0 c 0,6.254 1.746,11.245 5.238,14.969 v 0 c 3.492,3.726 7.926,5.588 13.298,5.588 v 0 c 5.375,0 9.784,-1.862 13.232,-5.588 v 0 c 3.447,-3.724 5.172,-8.715 5.172,-14.969 v 0 c 0,-6.257 -1.725,-11.246 -5.172,-14.97 v 0 c -3.448,-3.726 -7.857,-5.589 -13.232,-5.589 v 0 c -5.372,0 -9.806,1.863 -13.298,5.589"
                 style="fill:url(#linearGradient486);stroke:none"
                 id="path488" /></g></g></g></g></g><g
       id="g490"><g
         id="g492"
         clip-path="url(#clipPath496)"><g
           id="g498"><g
             id="g500" /><g
             id="g512"><g
               clip-path="url(#clipPath504)"
               opacity="0.75"
               id="g510"><g
                 transform="translate(609.0391,397.6823)"
                 id="g508"><path
                   d="m 0,0 c 0,0 7.576,15.869 72.616,4.781 68.96,-11.791 53.295,-35.673 52.43,-37.027 C 124.181,-33.6 103.549,-53.143 42.25,-49.962 -24.001,-46.562 0,0 0,0"
                   style="fill:#e0dcda;fill-opacity:1;fill-rule:nonzero;stroke:none"
                   id="path506" /></g></g></g></g></g></g><g
       id="g514"><g
         id="g516"><g
           id="g522"><g
             id="g524"><path
               d="m 742.84,386.842 c -4.686,-0.292 -9.603,-1.419 -12.093,-4.276 v 0 c -3.344,2.961 -11.416,4.999 -17.289,3.855 v 0 c -8.702,-1.695 -15.783,-7.364 -20.024,-15.134 v 0 c -3.914,-7.142 8.547,-7.366 18.855,-56.496 v 0 c 4.085,-0.108 8.702,1.696 14.629,2.85 v 0 c 9.027,1.761 19.673,7.955 19.311,18.215 v 0 c 4.444,-2.238 31.09,7.583 27.307,26.996 v 0 c -2.376,12.19 -15.693,24.034 -29.264,24.034 v 0 c -0.477,0 -0.955,-0.015 -1.432,-0.044"
               style="fill:url(#linearGradient532);stroke:none"
               id="path534" /></g></g></g></g><g
       id="g536"><g
         id="g538"><g
           id="g544"><g
             id="g546"><path
               d="m 713.511,386.431 c -8.755,-1.705 -15.77,-7.419 -20.024,-15.133 v 0 c -3.914,-7.142 8.547,-7.367 18.858,-56.496 v 0 c 4.029,-0.119 8.646,1.685 14.627,2.85 v 0 c 8.973,1.75 18.876,7.405 19.31,18.214 v 0 c 0.325,8.474 -8.386,20.153 -10.34,26.998 v 0 c -3.581,12.001 -2.857,11.465 -5.195,19.702 v 0 c -2.702,2.393 -8.494,4.183 -13.688,4.183 v 0 c -1.233,0 -2.432,-0.1 -3.548,-0.318"
               style="fill:url(#linearGradient554);stroke:none"
               id="path556" /></g></g></g></g><g
       id="g558"><g
         id="g560"
         clip-path="url(#clipPath564)"><g
           id="g566"><g
             id="g568" /><g
             id="g580"><g
               clip-path="url(#clipPath572)"
               opacity="0.100006"
               id="g578"><g
                 transform="translate(731.4902,319.0969)"
                 id="g576"><path
                   d="M 0,0 C 0,0 24.139,6.171 10.665,30.414 L 6.414,38.619 C 16.594,14.185 -2.66,13.648 0,0"
                   style="fill:#151112;fill-opacity:1;fill-rule:nonzero;stroke:none"
                   id="path574" /></g></g></g></g><g
           id="g582"
           transform="translate(671.9395,342.2624)"><path
             d="m 0,0 5.352,-27.463 c 0.689,-3.534 0.208,-6.564 -1.413,-8.967 -1.566,-2.395 -3.757,-3.894 -6.585,-4.445 -2.828,-0.551 -5.421,0.016 -7.771,1.647 -2.35,1.629 -3.825,4.278 -4.514,7.812 l -5.352,27.463 c -2.098,10.765 -6.901,15.419 -14.46,13.946 -7.721,-1.505 -10.531,-7.642 -8.434,-18.408 l 5.353,-27.462 c 0.688,-3.535 0.261,-6.555 -1.252,-8.936 -1.565,-2.395 -3.756,-3.894 -6.583,-4.444 -2.828,-0.552 -5.477,0.004 -7.936,1.614 -2.349,1.629 -3.824,4.278 -4.513,7.812 l -6.37,32.684 c -1.642,8.427 0.101,16.275 5.232,23.54 5.122,7.319 11.706,11.765 19.756,13.334 7.72,1.504 15.658,0.171 23.764,-4.062 5.346,6.743 11.767,10.873 19.271,12.336 8.863,1.727 17.025,0.101 24.542,-4.869 7.517,-4.971 12.143,-11.916 13.86,-20.724 l 6.126,-31.432 c 0.689,-3.535 0.207,-6.563 -1.414,-8.967 -1.564,-2.394 -3.7,-3.884 -6.583,-4.446 -2.829,-0.551 -5.422,0.017 -7.772,1.648 -2.35,1.63 -3.825,4.277 -4.515,7.812 L 22.437,4.485 c -0.869,4.46 -1.864,7.539 -3.039,9.23 -2.806,3.968 -6.557,5.551 -11.343,4.618 C 0.572,16.762 -2.077,10.658 0,0"
             style="fill:#58c037;fill-opacity:1;fill-rule:nonzero;stroke:none"
             id="path584" /></g><g
           id="g586"
           transform="translate(752.5576,370.2795)"><path
             d="m 0,0 c -6.462,5.062 -8.356,10.732 -5.283,14.662 3.071,3.929 9.153,3.42 15.604,-1.588 C 16.784,8.012 18.634,-0.038 14.86,-3.257 11.292,-6.381 6.463,-5.064 0,0"
             style="fill:#423d45;fill-opacity:1;fill-rule:nonzero;stroke:none"
             id="path588" /></g></g></g><g
       id="g590"><g
         id="g592"><g
           id="g598"><g
             id="g600"><path
               d="m 748.202,385.686 c -3.074,-3.929 -1.18,-9.6 5.283,-14.662 v 0 c 6.462,-5.063 11.237,-6.39 14.859,-3.257 v 0 c 3.777,3.219 1.925,11.269 -4.537,16.331 v 0 c -3.604,2.798 -7.093,4.192 -10.006,4.192 v 0 c -2.301,0 -4.243,-0.87 -5.599,-2.604"
               style="fill:url(#radialGradient606);stroke:none"
               id="path608" /></g></g></g></g><g
       id="g610"><g
         id="g612"
         clip-path="url(#clipPath616)"><g
           id="g618"
           transform="translate(742.623,386.8)"><path
             d="M 0,0 C 0,0 -1.602,25.878 24.068,24.785"
             style="fill:none;stroke:#56565a;stroke-width:1.317;stroke-linecap:butt;stroke-linejoin:miter;stroke-miterlimit:3.864;stroke-dasharray:none;stroke-opacity:1"
             id="path620" /></g><g
           id="g622"
           transform="translate(742.623,386.8)"><path
             d="M 0,0 C 0,0 -1.602,25.878 24.068,24.785"
             style="fill:none;stroke:#56565a;stroke-width:1.317;stroke-linecap:butt;stroke-linejoin:miter;stroke-miterlimit:3.864;stroke-dasharray:none;stroke-opacity:1"
             id="path624" /></g><g
           id="g626"
           transform="translate(740.9678,384.2761)"><path
             d="M 0,0 C 0,0 -7.63,25.833 19.05,20.42"
             style="fill:none;stroke:#56565a;stroke-width:1.317;stroke-linecap:butt;stroke-linejoin:miter;stroke-miterlimit:3.864;stroke-dasharray:none;stroke-opacity:1"
             id="path628" /></g><g
           id="g630"
           transform="translate(740.9678,384.2761)"><path
             d="M 0,0 C 0,0 -7.63,25.833 19.05,20.42"
             style="fill:none;stroke:#56565a;stroke-width:1.317;stroke-linecap:butt;stroke-linejoin:miter;stroke-miterlimit:3.864;stroke-dasharray:none;stroke-opacity:1"
             id="path632" /></g><g
           id="g634"
           transform="translate(760.2666,406.6076)"><path
             d="M 0,0 C 0.991,0.193 1.951,-0.454 2.145,-1.445 2.338,-2.436 1.69,-3.396 0.7,-3.589 -0.291,-3.782 -1.25,-3.135 -1.443,-2.144 -1.637,-1.153 -0.99,-0.193 0,0"
             style="fill:#56565a;fill-opacity:1;fill-rule:nonzero;stroke:none"
             id="path636" /></g><g
           id="g638"><g
             id="g640" /><g
             id="g652"><g
               clip-path="url(#clipPath644)"
               opacity="0.149994"
               id="g650"><g
                 transform="translate(754.2256,386.6345)"
                 id="g648"><path
                   d="M 0,0 C 0,0 2.771,0.258 5.021,-2.296 7.257,-4.795 0.876,-3.046 -0.411,-1.661 -1.848,-0.077 0,0 0,0"
                   style="fill:#ffffff;fill-opacity:1;fill-rule:nonzero;stroke:none"
                   id="path646" /></g></g></g></g></g></g><g
       id="g654"><g
         id="g656"
         clip-path="url(#clipPath660)"><g
           id="g662"><g
             id="g664" /><g
             id="g692"
             mask="url(#mask680)"><g
               id="g694"><path
                 d="m 675.484,380.263 c -7.503,-1.463 -13.925,-5.592 -19.27,-12.336 v 0 c -8.107,4.234 -16.044,5.567 -23.765,4.062 v 0 c -8.05,-1.569 -14.633,-6.015 -19.756,-13.334 v 0 c -5.131,-7.264 -6.873,-15.112 -5.231,-23.54 v 0 l 6.369,-32.684 c 0.69,-3.533 2.164,-6.182 4.514,-7.811 v 0 c 2.459,-1.611 5.108,-2.167 7.935,-1.615 v 0 c 2.827,0.551 5.019,2.05 6.583,4.444 v 0 c 1.513,2.382 1.94,5.402 1.252,8.936 v 0 l -5.352,27.463 c -2.098,10.765 0.712,16.902 8.433,18.407 v 0 c 7.559,1.473 12.363,-3.18 14.46,-13.946 v 0 l 5.353,-27.463 c 0.689,-3.533 2.164,-6.183 4.513,-7.812 v 0 c 2.35,-1.631 4.944,-2.197 7.771,-1.647 v 0 c 2.828,0.551 5.019,2.051 6.586,4.446 v 0 c 1.62,2.402 2.102,5.433 1.412,8.966 v 0 l -5.352,27.464 c -2.077,10.657 0.572,16.761 8.055,18.333 v 0 c 4.786,0.932 8.537,-0.651 11.344,-4.619 v 0 c 1.175,-1.691 2.17,-4.77 3.039,-9.23 v 0 l 5.351,-27.461 c 0.69,-3.535 2.166,-6.182 4.515,-7.812 v 0 c 2.351,-1.632 4.943,-2.2 7.772,-1.648 v 0 c 2.884,0.561 5.019,2.052 6.584,4.445 v 0 c 1.621,2.405 2.102,5.432 1.414,8.968 v 0 l -6.127,31.431 c -1.716,8.808 -6.343,15.754 -13.86,20.725 v 0 c -5.58,3.689 -11.516,5.536 -17.831,5.536 v 0 c -2.19,0 -4.428,-0.223 -6.711,-0.668"
                 style="fill:url(#linearGradient704);stroke:none"
                 id="path706" /></g></g></g></g></g><g
       id="g708"><g
         id="g710"
         clip-path="url(#clipPath714)"><g
           id="g716"><g
             id="g718" /><g
             id="g730"><g
               clip-path="url(#clipPath722)"
               opacity="0.100006"
               id="g728"><g
                 transform="translate(745.1777,369.6306)"
                 id="g726"><path
                   d="m 0,0 c 1.45,-5.7 -1.386,-9.979 -1.726,-10.554 -0.864,-1.352 -21.496,-20.897 -82.795,-17.716 -34.044,1.776 -44.28,14.909 -46.121,27.249 4.474,-20.634 31.482,-25.698 60.366,-25.318 39.857,0.542 59.613,10.093 67.865,17.572 C 0.367,-4.783 0,0 0,0"
                   style="fill:#151112;fill-opacity:1;fill-rule:nonzero;stroke:none"
                   id="path724" /></g></g></g></g><g
           id="g732"><g
             id="g734" /><g
             id="g746"><g
               clip-path="url(#clipPath738)"
               opacity="0.800003"
               id="g744"><g
                 transform="translate(618.0156,393.6169)"
                 id="g742"><path
                   d="M 0,0 C 0,0 7.577,15.87 72.617,4.782 141.576,-7.01 125.911,-30.892 125.045,-32.244 124.181,-33.598 103.548,-53.143 42.25,-49.962 -24.057,-46.571 0,0 0,0"
                   style="fill:#ffffff;fill-opacity:1;fill-rule:nonzero;stroke:none"
                   id="path740" /></g></g></g></g></g></g><text
       transform="matrix(0.94999984,0,0,-1,71.7612,227.9683)"
       style="font-variant:normal;font-weight:normal;font-stretch:normal;font-size:63.3118px;font-family:Montserrat;-inkscape-font-specification:Montserrat-Regular;writing-mode:lr-tb;fill:#454047;fill-opacity:1;fill-rule:nonzero;stroke:none"
       id="text750"><tspan
         x="0 37.670521 76.100784 142.00836 157.32982 198.41917 240.14166 277.11575 300.41449 342.58014 358.34479 394.43253"
         y="0"
         sodipodi:role="line"
         id="tspan748">Som Energia </tspan></text><text
       transform="matrix(0.95,0,0,-1,461.0225,227.9683)"
       style="font-variant:normal;font-weight:600;font-stretch:normal;font-size:58px;font-family:'Montserrat SemiBold';-inkscape-font-specification:Montserrat-SemiBold;writing-mode:lr-tb;fill:#454047;fill-opacity:1;fill-rule:nonzero;stroke:none"
       id="text754"><tspan
         x="0 32.422001 70.005997 102.602"
         y="0"
         sodipodi:role="line"
         id="tspan752">2021</tspan></text></g></svg>
